<svg id="svg" version="1.1" xmlns="http://www.w3.org/2000/svg" xmlns:xlink="http://www.w3.org/1999/xlink" width="400" height="417.77777777777777" viewBox="0, 0, 400,417.77777777777777"><g id="svgg"><path id="path0" d="M191.293 7.084 C 178.425 7.730,158.584 11.521,151.730 14.643 C 151.328 14.826,150.933 14.976,150.852 14.976 C 150.222 14.976,142.703 17.965,138.267 19.979 C 132.219 22.725,122.568 28.057,118.539 30.879 C 117.968 31.279,117.334 31.719,117.131 31.856 C 113.445 34.348,107.707 38.619,106.138 40.039 C 105.755 40.386,104.858 41.134,104.144 41.702 C 103.431 42.270,102.138 43.393,101.271 44.198 C 100.404 45.002,98.924 46.377,97.981 47.253 C 92.670 52.188,85.572 60.211,80.941 66.512 C 79.916 67.906,78.892 69.282,78.664 69.569 C 77.336 71.247,72.767 78.364,71.222 81.161 C 70.723 82.064,70.211 82.921,70.086 83.065 C 69.389 83.860,62.342 98.213,62.342 98.837 C 62.342 98.886,62.113 99.417,61.833 100.016 C 61.149 101.477,59.243 106.493,58.348 109.186 C 57.950 110.383,57.555 111.491,57.470 111.647 C 56.629 113.189,53.038 127.343,51.997 133.217 C 48.682 151.925,48.592 169.974,51.722 188.594 C 52.734 194.614,55.143 204.850,56.826 210.274 C 59.073 217.519,60.388 221.418,61.746 224.860 C 62.265 226.177,62.690 227.292,62.690 227.336 C 62.690 227.501,65.505 234.513,65.908 235.350 C 66.138 235.829,66.731 237.162,67.226 238.311 C 68.821 242.015,69.326 243.105,71.658 247.889 C 75.106 254.961,77.905 260.272,81.660 266.870 C 83.320 269.787,86.597 275.325,87.482 276.709 C 87.941 277.427,88.999 279.112,89.833 280.453 C 92.724 285.103,97.623 292.522,100.435 296.508 C 101.098 297.447,102.164 298.960,102.806 299.869 C 105.207 303.275,106.967 305.699,108.970 308.361 C 110.105 309.868,111.277 311.454,111.573 311.885 C 111.870 312.316,112.261 312.825,112.442 313.017 C 112.622 313.209,113.503 314.345,114.400 315.542 C 115.297 316.739,116.445 318.228,116.951 318.851 C 117.457 319.473,119.030 321.432,120.445 323.204 C 124.796 328.652,129.225 334.047,129.809 334.610 C 130.008 334.802,130.482 335.350,130.862 335.829 C 131.778 336.981,133.554 339.070,133.900 339.402 C 134.051 339.547,134.567 340.134,135.046 340.707 C 137.515 343.659,144.181 351.039,150.617 357.945 C 158.551 366.458,171.553 379.458,179.792 387.114 C 181.699 388.886,183.503 390.570,183.801 390.858 C 184.277 391.316,188.131 394.781,192.338 398.532 C 193.104 399.215,194.935 400.805,196.406 402.065 L 199.081 404.356 199.655 403.876 C 201.526 402.310,204.273 399.959,204.727 399.536 C 205.018 399.264,205.876 398.503,206.633 397.844 C 207.391 397.185,208.677 396.040,209.491 395.300 C 210.305 394.559,211.990 393.029,213.235 391.898 C 220.953 384.889,235.462 370.678,243.454 362.298 C 247.166 358.406,253.703 351.370,255.749 349.064 C 256.514 348.202,257.438 347.183,257.802 346.800 C 258.166 346.417,258.857 345.633,259.338 345.059 C 259.819 344.484,260.940 343.191,261.828 342.185 C 262.716 341.180,264.097 339.608,264.895 338.692 C 266.610 336.725,273.021 329.094,273.707 328.203 C 273.969 327.862,274.889 326.724,275.751 325.674 C 279.333 321.310,281.657 318.335,286.526 311.885 C 294.579 301.217,297.155 297.575,303.809 287.446 C 308.968 279.592,309.002 279.539,310.797 276.535 C 311.683 275.050,312.486 273.718,312.580 273.574 C 312.988 272.952,315.020 269.533,315.020 269.470 C 315.020 269.431,315.519 268.556,316.129 267.525 C 317.432 265.324,319.374 261.839,320.326 259.991 C 320.696 259.273,321.175 258.403,321.391 258.058 C 321.946 257.170,327.216 246.637,328.047 244.754 C 328.427 243.892,329.109 242.403,329.562 241.445 C 330.717 239.006,331.550 237.098,332.685 234.290 C 333.224 232.958,333.849 231.476,334.073 230.997 C 334.518 230.047,336.357 225.169,337.980 220.636 C 339.211 217.198,340.661 212.633,341.659 209.055 C 342.059 207.619,342.458 206.286,342.543 206.095 C 343.146 204.750,345.536 193.880,346.542 187.909 C 346.742 186.718,346.934 185.698,346.968 185.644 C 347.282 185.136,348.360 174.454,348.647 169.003 C 349.103 160.368,348.345 145.668,347.076 138.529 C 346.990 138.050,346.682 136.286,346.390 134.610 C 344.789 125.429,342.439 116.396,339.497 108.114 C 338.509 105.331,338.221 104.592,336.219 99.695 C 333.743 93.636,329.003 84.281,325.941 79.408 C 325.370 78.498,324.755 77.497,324.576 77.184 C 323.503 75.305,318.674 68.262,316.866 65.939 C 314.086 62.366,313.010 61.001,312.656 60.601 C 312.445 60.361,311.503 59.264,310.564 58.163 C 304.265 50.773,293.746 40.879,287.505 36.474 C 286.979 36.102,286.195 35.509,285.764 35.157 C 284.299 33.960,274.862 27.688,274.526 27.688 C 274.487 27.688,273.924 27.346,273.275 26.928 C 272.625 26.511,271.549 25.876,270.882 25.518 C 265.352 22.549,263.190 21.447,260.775 20.367 C 259.242 19.681,257.519 18.902,256.944 18.636 C 255.552 17.990,252.413 16.762,249.630 15.776 C 248.385 15.334,246.974 14.819,246.495 14.632 C 244.422 13.819,238.831 12.204,234.131 11.061 C 232.695 10.712,231.088 10.319,230.562 10.188 C 221.144 7.853,203.601 6.466,191.293 7.084 M208.707 42.911 C 284.404 49.683,332.314 127.004,304.481 197.475 C 284.379 248.373,230.435 277.788,176.926 267.031 C 117.768 255.137,78.222 198.933,86.999 139.225 C 95.662 80.293,149.586 37.621,208.707 42.911 M195.385 60.543 C 136.790 63.115,94.339 116.834,105.539 174.237 C 114.985 222.647,160.733 256.255,209.578 250.666 C 267.584 244.029,306.148 187.700,291.247 131.373 C 279.896 88.467,239.485 58.608,195.385 60.543 M249.020 104.394 L 249.020 118.061 213.278 118.108 L 177.536 118.154 176.404 118.559 C 167.036 121.914,167.326 138.559,176.792 140.791 C 177.737 141.014,182.685 141.049,213.452 141.051 L 249.020 141.054 249.020 155.072 L 249.020 169.090 212.304 169.090 L 175.587 169.090 174.559 169.756 C 167.157 174.550,168.058 187.920,175.990 191.002 L 177.188 191.467 213.104 191.513 L 249.020 191.558 249.020 205.575 L 249.020 219.591 210.902 219.591 C 186.559 219.591,172.132 219.527,170.981 219.415 C 159.083 218.255,149.942 211.976,144.263 201.061 C 137.325 187.725,138.076 168.756,146.020 156.726 C 146.883 155.418,146.971 155.205,146.776 154.898 C 136.146 138.129,137.304 115.589,149.513 101.623 C 154.668 95.727,161.503 92.088,169.447 91.010 C 170.969 90.803,177.634 90.760,210.144 90.745 L 249.020 90.727 249.020 104.394 M154.288 302.220 C 154.288 302.630,154.233 302.656,153.369 302.656 C 151.631 302.656,151.678 302.521,151.666 307.585 C 151.655 312.831,151.617 313.000,150.332 313.652 L 149.424 314.112 149.997 314.220 C 150.312 314.279,150.799 314.566,151.080 314.859 L 151.589 315.390 151.634 319.863 C 151.693 325.589,151.650 325.468,153.630 325.468 C 154.238 325.468,154.306 325.511,154.257 325.860 C 154.184 326.373,151.116 326.424,150.155 325.927 C 149.260 325.464,149.238 325.327,149.238 320.182 L 149.238 315.395 148.792 314.865 C 148.513 314.532,148.108 314.290,147.707 314.215 L 147.067 314.095 147.761 313.855 C 149.186 313.363,149.140 313.547,149.238 307.902 C 149.346 301.674,149.274 301.805,152.590 301.792 C 154.287 301.785,154.288 301.785,154.288 302.220 M247.973 302.090 C 248.985 302.597,249.015 302.770,249.018 308.067 C 249.021 313.453,248.974 313.258,250.390 313.853 L 250.973 314.098 250.427 314.207 C 250.128 314.267,249.688 314.510,249.451 314.747 L 249.020 315.178 249.020 319.862 C 249.020 326.153,249.026 326.142,245.669 326.303 L 243.970 326.385 243.970 325.951 C 243.970 325.550,244.048 325.509,244.972 325.414 C 246.609 325.245,246.581 325.337,246.589 320.094 C 246.593 316.798,246.653 315.524,246.818 315.227 C 247.091 314.735,247.938 314.156,248.411 314.138 C 248.641 314.129,248.518 314.017,248.047 313.807 C 246.584 313.156,246.582 313.149,246.582 307.943 C 246.582 302.562,246.612 302.656,244.928 302.656 C 244.023 302.656,243.970 302.632,243.970 302.220 C 243.970 301.649,246.903 301.553,247.973 302.090 M168.916 308.402 L 168.916 309.970 164.881 309.970 C 160.313 309.970,160.209 309.997,160.209 311.206 C 160.209 312.358,160.406 312.407,164.950 312.407 L 168.916 312.407 168.916 313.975 L 168.916 315.542 164.881 315.542 C 160.346 315.542,160.209 315.577,160.209 316.731 C 160.209 317.958,160.291 317.980,164.851 317.980 L 168.916 317.980 168.916 319.547 L 168.916 321.114 164.345 321.111 C 159.185 321.106,158.828 321.035,157.820 319.812 C 156.813 318.591,156.546 316.305,157.231 314.759 L 157.577 313.975 157.222 313.172 C 156.510 311.562,156.868 309.131,157.997 307.903 C 158.898 306.923,159.375 306.843,164.345 306.839 L 168.916 306.835 168.916 308.402 M180.718 307.397 C 182.947 308.873,183.101 313.326,180.975 314.807 C 180.133 315.394,179.361 315.542,177.153 315.542 C 173.820 315.542,173.758 315.601,173.623 318.938 L 173.531 321.202 171.993 321.252 L 170.456 321.303 170.513 318.017 C 170.601 312.997,171.017 312.549,175.725 312.407 C 178.959 312.310,179.190 312.231,179.190 311.224 C 179.190 310.212,178.823 309.970,177.291 309.969 C 176.564 309.969,174.734 309.917,173.226 309.855 L 170.483 309.741 170.483 308.280 L 170.483 306.819 175.242 306.871 L 180.000 306.922 180.718 307.397 M186.985 314.018 L 186.939 321.202 185.372 321.202 L 183.805 321.202 183.759 314.018 L 183.714 306.835 185.372 306.835 L 187.030 306.835 186.985 314.018 M197.475 308.402 L 197.475 309.970 195.821 309.970 L 194.166 309.970 194.166 315.542 L 194.166 321.114 192.599 321.114 L 191.032 321.114 191.032 315.542 L 191.032 309.970 189.465 309.970 L 187.897 309.970 187.897 308.402 L 187.897 306.835 192.686 306.835 L 197.475 306.835 197.475 308.402 M210.361 308.402 L 210.361 309.970 206.400 309.972 C 202.178 309.975,202.121 309.984,201.844 310.712 C 201.277 312.204,201.822 312.407,206.383 312.407 L 210.361 312.407 210.361 313.975 L 210.361 315.542 206.260 315.542 L 202.159 315.542 201.908 316.142 C 201.227 317.772,201.734 317.980,206.383 317.980 L 210.361 317.980 210.361 319.547 L 210.361 321.114 206.034 321.114 C 201.457 321.114,200.966 321.047,199.935 320.282 C 198.587 319.280,198.048 316.571,198.842 314.778 L 199.197 313.975 198.842 313.172 C 197.804 310.826,198.893 307.797,201.045 307.045 C 201.352 306.938,203.383 306.857,205.964 306.849 L 210.361 306.835 210.361 308.402 M223.596 308.402 L 223.596 309.970 220.192 309.970 C 217.534 309.970,216.678 310.026,216.291 310.226 C 214.587 311.107,214.408 315.793,216.017 317.402 L 216.596 317.980 220.096 317.980 L 223.596 317.980 223.596 319.547 L 223.596 321.114 219.742 321.114 C 215.114 321.114,214.811 321.047,213.481 319.727 C 209.914 316.186,211.313 308.059,215.673 306.998 C 215.960 306.928,217.860 306.863,219.896 306.853 L 223.596 306.835 223.596 308.402 M228.124 309.621 L 228.124 312.407 230.910 312.407 L 233.696 312.407 233.696 309.621 L 233.696 306.835 235.263 306.835 L 236.831 306.835 236.831 313.975 L 236.831 321.114 235.263 321.114 L 233.696 321.114 233.696 318.328 L 233.696 315.542 230.910 315.542 L 228.124 315.542 228.124 318.328 L 228.124 321.114 226.556 321.114 L 224.989 321.114 224.989 313.975 L 224.989 306.835 226.556 306.835 L 228.124 306.835 228.124 309.621 M241.787 317.901 C 242.857 318.409,243.085 319.763,242.242 320.605 C 240.965 321.883,238.842 320.556,239.474 318.876 C 239.855 317.862,240.834 317.449,241.787 317.901 M0.000 415.586 C 0.000 415.815,1.354 415.847,11.145 415.847 C 20.936 415.847,22.290 415.815,22.290 415.586 C 22.290 415.356,20.936 415.324,11.145 415.324 C 1.354 415.324,0.000 415.356,0.000 415.586 M375.911 415.440 C 375.847 415.504,375.795 415.622,375.795 415.702 C 375.795 415.781,381.241 415.847,387.897 415.847 C 398.539 415.847,400.000 415.815,400.000 415.586 C 400.000 415.311,376.184 415.167,375.911 415.440 " stroke="none" fill="#1cace4" fill-rule="evenodd"></path><path id="path1" d="M192.599 42.672 C 176.301 43.751,162.128 47.575,148.106 54.675 C 104.462 76.774,79.853 124.221,87.003 172.486 C 96.339 235.515,156.387 278.728,218.981 267.462 C 284.897 255.599,326.322 189.422,308.140 125.033 C 293.765 74.129,244.785 39.214,192.599 42.672 M203.744 60.607 C 262.122 63.651,303.983 117.457,292.544 174.750 C 283.061 222.249,238.509 255.414,190.335 250.838 C 133.958 245.481,94.536 192.573,105.615 137.135 C 114.839 90.982,156.918 58.166,203.744 60.607 M169.447 91.010 C 142.750 94.633,130.484 129.199,146.776 154.898 C 146.971 155.205,146.883 155.418,146.020 156.726 C 138.076 168.756,137.325 187.725,144.263 201.061 C 149.942 211.976,159.083 218.255,170.981 219.415 C 172.132 219.527,186.559 219.591,210.902 219.591 L 249.020 219.591 249.020 205.575 L 249.020 191.558 213.104 191.513 L 177.188 191.467 175.990 191.002 C 168.058 187.920,167.157 174.550,174.559 169.756 L 175.587 169.090 212.304 169.090 L 249.020 169.090 249.020 155.072 L 249.020 141.054 213.452 141.051 C 182.685 141.049,177.737 141.014,176.792 140.791 C 167.326 138.559,167.036 121.914,176.404 118.559 L 177.536 118.154 213.278 118.108 L 249.020 118.061 249.020 104.394 L 249.020 90.727 210.144 90.745 C 177.634 90.760,170.969 90.803,169.447 91.010 M150.370 302.026 C 149.324 302.482,149.333 302.435,149.238 307.902 C 149.140 313.547,149.186 313.363,147.761 313.855 L 147.067 314.095 147.707 314.215 C 148.108 314.290,148.513 314.532,148.792 314.865 L 149.238 315.395 149.238 320.182 C 149.238 325.327,149.260 325.464,150.155 325.927 C 151.116 326.424,154.184 326.373,154.257 325.860 C 154.306 325.511,154.238 325.468,153.630 325.468 C 151.650 325.468,151.693 325.589,151.634 319.863 L 151.589 315.390 151.080 314.859 C 150.799 314.566,150.312 314.279,149.997 314.220 L 149.424 314.112 150.332 313.652 C 151.617 313.000,151.655 312.831,151.666 307.585 C 151.678 302.521,151.631 302.656,153.369 302.656 C 154.233 302.656,154.288 302.630,154.288 302.220 C 154.288 301.708,151.425 301.566,150.370 302.026 M243.970 302.220 C 243.970 302.632,244.023 302.656,244.928 302.656 C 246.612 302.656,246.582 302.562,246.582 307.943 C 246.582 313.149,246.584 313.156,248.047 313.807 C 248.518 314.017,248.641 314.129,248.411 314.138 C 247.938 314.156,247.091 314.735,246.818 315.227 C 246.653 315.524,246.593 316.798,246.589 320.094 C 246.581 325.337,246.609 325.245,244.972 325.414 C 244.048 325.509,243.970 325.550,243.970 325.951 L 243.970 326.385 245.669 326.303 C 249.026 326.142,249.020 326.153,249.020 319.862 L 249.020 315.178 249.451 314.747 C 249.688 314.510,250.128 314.267,250.427 314.207 L 250.973 314.098 250.390 313.853 C 248.974 313.258,249.021 313.453,249.018 308.067 C 249.015 301.820,248.996 301.786,245.668 301.785 C 243.973 301.785,243.970 301.786,243.970 302.220 M159.077 307.164 C 157.145 308.056,156.246 310.966,157.222 313.172 L 157.577 313.975 157.231 314.759 C 156.546 316.305,156.813 318.591,157.820 319.812 C 158.828 321.035,159.185 321.106,164.345 321.111 L 168.916 321.114 168.916 319.547 L 168.916 317.980 164.851 317.980 C 160.291 317.980,160.209 317.958,160.209 316.731 C 160.209 315.577,160.346 315.542,164.881 315.542 L 168.916 315.542 168.916 313.975 L 168.916 312.407 164.950 312.407 C 160.406 312.407,160.209 312.358,160.209 311.206 C 160.209 309.997,160.313 309.970,164.881 309.970 L 168.916 309.970 168.916 308.402 L 168.916 306.835 164.345 306.839 C 160.273 306.842,159.697 306.878,159.077 307.164 M170.483 308.280 L 170.483 309.741 173.226 309.855 C 174.734 309.917,176.564 309.969,177.291 309.969 C 178.823 309.970,179.190 310.212,179.190 311.224 C 179.190 312.231,178.959 312.310,175.725 312.407 C 171.017 312.549,170.601 312.997,170.513 318.017 L 170.456 321.303 171.993 321.252 L 173.531 321.202 173.623 318.938 C 173.758 315.601,173.820 315.542,177.153 315.542 C 179.361 315.542,180.133 315.394,180.975 314.807 C 183.101 313.326,182.947 308.873,180.718 307.397 L 180.000 306.922 175.242 306.871 L 170.483 306.819 170.483 308.280 M183.759 314.018 L 183.805 321.202 185.372 321.202 L 186.939 321.202 186.985 314.018 L 187.030 306.835 185.372 306.835 L 183.714 306.835 183.759 314.018 M187.897 308.402 L 187.897 309.970 189.465 309.970 L 191.032 309.970 191.032 315.542 L 191.032 321.114 192.599 321.114 L 194.166 321.114 194.166 315.542 L 194.166 309.970 195.821 309.970 L 197.475 309.970 197.475 308.402 L 197.475 306.835 192.686 306.835 L 187.897 306.835 187.897 308.402 M201.045 307.045 C 198.893 307.797,197.804 310.826,198.842 313.172 L 199.197 313.975 198.842 314.778 C 198.048 316.571,198.587 319.280,199.935 320.282 C 200.966 321.047,201.457 321.114,206.034 321.114 L 210.361 321.114 210.361 319.547 L 210.361 317.980 206.383 317.980 C 201.734 317.980,201.227 317.772,201.908 316.142 L 202.159 315.542 206.260 315.542 L 210.361 315.542 210.361 313.975 L 210.361 312.407 206.383 312.407 C 201.822 312.407,201.277 312.204,201.844 310.712 C 202.121 309.984,202.178 309.975,206.400 309.972 L 210.361 309.970 210.361 308.402 L 210.361 306.835 205.964 306.849 C 203.383 306.857,201.352 306.938,201.045 307.045 M215.673 306.998 C 211.313 308.059,209.914 316.186,213.481 319.727 C 214.811 321.047,215.114 321.114,219.742 321.114 L 223.596 321.114 223.596 319.547 L 223.596 317.980 220.096 317.980 L 216.596 317.980 216.017 317.402 C 214.408 315.793,214.587 311.107,216.291 310.226 C 216.678 310.026,217.534 309.970,220.192 309.970 L 223.596 309.970 223.596 308.402 L 223.596 306.835 219.896 306.853 C 217.860 306.863,215.960 306.928,215.673 306.998 M224.989 313.975 L 224.989 321.114 226.556 321.114 L 228.124 321.114 228.124 318.328 L 228.124 315.542 230.910 315.542 L 233.696 315.542 233.696 318.328 L 233.696 321.114 235.263 321.114 L 236.831 321.114 236.831 313.975 L 236.831 306.835 235.263 306.835 L 233.696 306.835 233.696 309.621 L 233.696 312.407 230.910 312.407 L 228.124 312.407 228.124 309.621 L 228.124 306.835 226.556 306.835 L 224.989 306.835 224.989 313.975 M240.318 317.937 C 238.634 318.784,239.285 321.114,241.206 321.114 C 242.857 321.114,243.308 318.623,241.787 317.901 C 241.079 317.565,241.055 317.566,240.318 317.937 M0.000 414.976 C 0.000 415.321,0.116 415.324,11.145 415.324 C 22.174 415.324,22.290 415.321,22.290 414.976 C 22.290 414.631,22.174 414.628,11.145 414.628 C 0.116 414.628,0.000 414.631,0.000 414.976 M375.794 415.020 L 375.794 415.411 387.897 415.366 C 399.841 415.320,400.000 415.315,400.000 414.974 C 400.000 414.632,399.857 414.628,387.897 414.628 L 375.795 414.628 375.794 415.020 M0.000 416.282 L 0.000 416.717 11.145 416.717 L 22.290 416.717 22.290 416.282 L 22.290 415.847 11.145 415.847 L 0.000 415.847 0.000 416.282 M375.795 416.282 L 375.795 416.717 387.897 416.717 L 400.000 416.717 400.000 416.282 L 400.000 415.847 387.897 415.847 L 375.795 415.847 375.795 416.282 " stroke="none" fill="#fbfbfb" fill-rule="evenodd"></path></g></svg>